<?xml version="1.0" encoding="utf-8"?>
<!-- Generator: Adobe Illustrator 16.0.0, SVG Export Plug-In . SVG Version: 6.00 Build 0)  -->
<!DOCTYPE svg PUBLIC "-//W3C//DTD SVG 1.1//EN" "http://www.w3.org/Graphics/SVG/1.1/DTD/svg11.dtd">
<svg version="1.1" id="Layer_1" xmlns="http://www.w3.org/2000/svg" xmlns:xlink="http://www.w3.org/1999/xlink" x="0px" y="0px"
	 width="75px" height="75px" viewBox="338.557 555.668 75 75" enable-background="new 338.557 555.668 75 75" xml:space="preserve">
<g transform="translate(0.000000,1023.000000) scale(0.100000,-0.100000)">
	<path d="M3633.906,4542.891v-41.338h40.049h40.049v10.488v10.488h-28.125h-28.018v4.668c0,2.578,0.166,10.85,0.41,18.271
		l0.361,13.604h27.656h27.715v12.588v12.578h-40.049h-40.049V4542.891z"/>
	<path d="M3723.584,4559.072v-25.166h28.467h28.457v-3.115c0-1.729-0.176-4.609-0.352-6.299l-0.42-3.174h-28.037h-28.115v-9.873
		v-9.893h40.752h40.742v24.15v24.199l-5.82,0.361c-3.223,0.244-16.592,0.43-29.648,0.43h-23.857v4.785v4.795h29.668h29.658v11.992
		v11.973h-40.742h-40.752V4559.072L3723.584,4559.072z"/>
	<path d="M3814.072,4559.072v-25.166h28.154h28.164v-6.23v-6.23l-14.199-0.42c-7.852-0.244-20.547-0.303-28.164-0.059l-13.955,0.352
		v-9.873v-9.893h40.742h40.742v24.268v24.268h-29.658h-29.658v5.098v5.088h29.658h29.658v11.992v11.973h-40.742h-40.742V4559.072z"
		/>
	<path d="M3546.601,4463.691c0.181-2.1,0.786-7.803,1.323-12.764c1.016-10.068,2.148-23.018,7.783-86.885
		c2.1-24.385,6.416-72.617,9.531-107.256c3.174-34.58,7.065-78.428,8.745-97.373c6.953-78.906,7.969-90.645,10.068-113.184
		l2.212-23.594l2.7-0.781c1.499-0.43,10.005-2.754,18.877-5.283c8.926-2.451,26.182-7.305,38.345-10.771
		c12.202-3.428,35.103-9.951,51.04-14.453c16.006-4.482,37.568-10.605,47.939-13.594l18.867-5.332l3.301,0.889
		c1.797,0.537,12.998,3.711,24.854,7.012c11.885,3.301,32.91,9.229,46.758,13.125c13.828,3.896,32.588,9.17,41.631,11.68
		c9.053,2.588,23.359,6.602,31.758,8.994c8.389,2.334,18.76,5.215,22.939,6.348c6.309,1.689,7.734,2.285,7.92,3.242
		c0.293,1.426,6.406,69.141,12.578,139.903c2.451,28.223,5.576,62.979,6.895,77.295c3.35,36.973,7.49,83.291,14.072,157.891
		c3.115,35.586,5.762,65.605,5.869,66.68l0.195,1.924h-218.34h-218.218L3546.601,4463.691z M3942.949,4431.748
		c0.186-0.127-0.479-8.564-1.367-18.691c-0.967-10.127-3.604-39.717-5.879-65.801c-2.275-25.986-7.012-79.023-10.43-117.734
		c-3.467-38.711-8.203-92.09-10.547-118.633c-2.344-26.543-4.551-50.938-4.971-54.239l-0.723-5.977l-15.586-4.258
		c-8.545-2.393-22.451-6.172-30.85-8.506c-78.428-21.631-94.248-25.889-96.289-25.889h-1.367v25.352
		c0,27.021-0.176,29.766-1.748,29.766c-1.797,0-107.539,27.031-118.564,30.332c-0.781,0.176-1.318,2.637-2.573,11.797
		c-2.881,20.791-5.332,46.855-6.172,64.717l-0.361,8.203l24.78-0.059c13.594,0,25.742-0.176,27.07-0.42l2.383-0.42l1.611-19.473
		c2.207-26.23,1.846-24.385,4.541-25.156c4.375-1.201,68.428-13.311,68.857-13.018c0.049,0.059,0.176,20.615,0.303,45.605
		l0.166,45.479l-66.816-0.303l-66.611-0.352l-2.036,20.186c-1.079,11.094-2.158,23.672-2.339,27.92l-0.303,7.793l3.237,1.563
		c3.174,1.553,14.683,6.523,76.753,33.428c32.529,14.014,52.305,22.773,51.836,22.891c-0.186,0.068-31.23,0.244-69.023,0.479
		c-37.568,0.186-68.73,0.596-68.97,0.84c-0.898,0.889-5.63,41.221-5.63,48.174v2.578h74.717h74.893v25.771v25.752l22.344,0.176
		C3830.898,4431.924,3942.715,4432.051,3942.949,4431.748z"/>
</g>
</svg>
