<?xml version="1.0" encoding="utf-8"?>
<!-- Generator: Adobe Illustrator 16.0.0, SVG Export Plug-In . SVG Version: 6.00 Build 0)  -->
<!DOCTYPE svg PUBLIC "-//W3C//DTD SVG 1.1//EN" "http://www.w3.org/Graphics/SVG/1.1/DTD/svg11.dtd">
<svg version="1.1" id="Layer_1" xmlns="http://www.w3.org/2000/svg" xmlns:xlink="http://www.w3.org/1999/xlink" x="0px" y="0px"
	 width="712px" height="471px" viewBox="0 0 712 471" enable-background="new 0 0 712 471" xml:space="preserve">
<linearGradient id="SVGID_1_" gradientUnits="userSpaceOnUse" x1="0" y1="235.5" x2="712.001" y2="235.5">
	<stop  offset="0.7736" style="stop-color:#ACD4BE"/>
	<stop  offset="1" style="stop-color:#FFFFFF;stop-opacity:0"/>
</linearGradient>
<rect fill="url(#SVGID_1_)" width="712.001" height="471"/>
<g id="XMLID_1_">
	<g>
		<linearGradient id="SVGID_2_" gradientUnits="userSpaceOnUse" x1="0" y1="30.5" x2="712" y2="30.5">
			<stop  offset="0" style="stop-color:#FFFFFF;stop-opacity:0"/>
			<stop  offset="0.4731" style="stop-color:#FFFFFF"/>
		</linearGradient>
		<polygon fill="url(#SVGID_2_)" points="712,0 0,61 0,0 		"/>
	</g>
	<g>
	</g>
</g>
<g id="XMLID_2_">
	<g>
		<linearGradient id="SVGID_3_" gradientUnits="userSpaceOnUse" x1="-32.5635" y1="165.7817" x2="719.2432" y2="43.892">
			<stop  offset="0" style="stop-color:#FFFFFF;stop-opacity:0"/>
			<stop  offset="0.4731" style="stop-color:#FFFFFF"/>
		</linearGradient>
		<polygon fill="url(#SVGID_3_)" points="711.971,-0.963 -25.291,210.638 -39.835,120.927 		"/>
	</g>
	<g>
	</g>
</g>
<g id="XMLID_3_">
	<g>
		<linearGradient id="SVGID_4_" gradientUnits="userSpaceOnUse" x1="-43.6465" y1="391.5352" x2="739.7162" y2="66.8763">
			<stop  offset="0" style="stop-color:#FFFFFF;stop-opacity:0"/>
			<stop  offset="0.4731" style="stop-color:#FFFFFF"/>
		</linearGradient>
		<polygon fill="url(#SVGID_4_)" points="712,0 -15.93,458.411 -71.362,324.659 		"/>
	</g>
	<g>
	</g>
</g>
<g id="XMLID_4_">
	<g>
		<linearGradient id="SVGID_5_" gradientUnits="userSpaceOnUse" x1="92.4165" y1="583.4531" x2="756.9668" y2="56.7332">
			<stop  offset="0" style="stop-color:#FFFFFF;stop-opacity:0"/>
			<stop  offset="0.4731" style="stop-color:#FFFFFF"/>
		</linearGradient>
		<polygon fill="url(#SVGID_5_)" points="47.45,526.72 712,0 137.382,640.186 		"/>
	</g>
	<g>
	</g>
</g>
<g id="XMLID_5_">
	<g>
		<linearGradient id="SVGID_6_" gradientUnits="userSpaceOnUse" x1="462.2539" y1="513.166" x2="772.5493" y2="39.6796">
			<stop  offset="0" style="stop-color:#FFFFFF;stop-opacity:0"/>
			<stop  offset="0.4731" style="stop-color:#FFFFFF"/>
		</linearGradient>
		<polygon fill="url(#SVGID_6_)" points="712.001,0 522.802,552.846 401.705,473.486 		"/>
	</g>
	<g>
	</g>
</g>
<g id="XMLID_6_">
	<g>
		<linearGradient id="SVGID_7_" gradientUnits="userSpaceOnUse" x1="666.2363" y1="564.248" x2="765.7114" y2="6.9529">
			<stop  offset="0" style="stop-color:#FFFFFF;stop-opacity:0"/>
			<stop  offset="0.4731" style="stop-color:#FFFFFF"/>
		</linearGradient>
		<polygon fill="url(#SVGID_7_)" points="711.985,-2.637 719.963,573.838 612.512,554.658 		"/>
	</g>
	<g>
	</g>
</g>
<path opacity="0.7" fill="#ACD4BE" d="M126.768,166.377c31.152,6.01,61.283-14.377,67.293-45.528
	c4.809-24.927-7.274-49.186-28.252-60.967c-2.72-1.062-4.086,0.482-4.373,1.969c-0.259,1.343-1.066,5.801-1.947,10.516
	c16.344-0.382,17.719,10.319,17.719,10.319c1.311,7.01,4.67,9.458,4.67,9.458c4.453,4.486-1.05,3.354-1.05,3.354
	c-5.588-1.486-7.525-7.48-7.525-7.48c-3.37-9.592-12.024-8.676-15.512-7.85c-1.215,3.537-3.155,5.748-5.035,6.843
	c12.248,3.84,24.487,11.223,20.317,32.839c-1.189,6.162-4.36,10.764-8.722,14.019c0.298,1.543,1.131,7.658-3.44,14.828
	c0,0-5.023,0.602-14.398-8.777c-4.738,0.389-9.682,0.077-14.481-0.827c-4.79-0.946-9.496-2.504-13.756-4.628
	c-12.172,5.229-16.616,2.794-16.616,2.794c-1.587-8.366,1.461-13.724,2.315-15.038c-2.854-4.647-4.067-10.095-2.878-16.257
	c4.181-21.671,18.296-23.898,31.132-22.871c-1.693-2.141-2.83-5.918-1.815-11.178c1.455-7.541,2.704-13.605,3.063-15.465
	c0.29-1.502-0.399-3.455-3.362-3.455c-23.842,3.149-44.068,21.172-48.875,46.087C75.23,130.234,95.614,160.367,126.768,166.377z"/>
<radialGradient id="SVGID_8_" cx="732.3252" cy="501.5" r="62.6748" gradientTransform="matrix(1 0 0 -1 -40 532)" gradientUnits="userSpaceOnUse">
	<stop  offset="0.7043" style="stop-color:#FFFFFF"/>
	<stop  offset="0.9677" style="stop-color:#FFFFFF;stop-opacity:0"/>
	<stop  offset="1" style="stop-color:#FFFFFF;stop-opacity:0.086"/>
</radialGradient>
<circle fill="url(#SVGID_8_)" cx="692.325" cy="30.5" r="62.675"/>
<g transform="translate(0.000000,512.000000) scale(0.100000,-0.100000)" opacity="0.8">
	<path fill="#ACD4BE" d="M6223.408,2387.47l21.279-83.281l27.764,7.09l27.764,7.09l-7.1,27.764l-7.1,27.764l26.563,6.787
		l26.543,6.777l7.1-27.754l7.09-27.764l27.764,7.09l27.754,7.1l-21.27,83.281l-21.289,83.281l-27.754-7.1l-27.52-7.031l6.182-27.227
		l6.24-27.461l-25.332-6.475l-25.352-6.475l-7.695,27.09l-7.637,26.855l-27.52-7.031l-27.754-7.09L6223.408,2387.47z"/>
	<path fill="#ACD4BE" d="M6397.5,2491.103l7.1-27.764l24.131,6.172l24.141,6.162l14.189-55.518l14.189-55.518l27.764,7.09
		l27.764,7.09l-14.189,55.527l-14.189,55.518l24.141,6.172l24.131,6.162l-7.1,27.764l-7.09,27.764l-76.035-19.434l-76.035-19.434
		L6397.5,2491.103z"/>
	<path fill="#ACD4BE" d="M6590.312,2481.22l21.289-83.281l26.543,6.787l26.553,6.787l-9.873,40.674l-9.58,40.498l25.322-23.613
		c13.906-13.164,25.996-23.193,26.895-22.705s6.563,15.566,12.578,33.301l11.24,32.451l10.303-40.313l10.361-40.557l27.764,7.09
		l27.754,7.1l-21.279,83.281l-21.279,83.281l-28.73-7.344l-28.721-7.334l-8.896-28.516c-4.707-15.859-9.59-30.996-10.41-33.77
		c-1.66-4.541-4.824-2.266-27.051,19.307l-25.078,24.717l-28.496-7.275l-28.477-7.285L6590.312,2481.22z"/>
	<path fill="#ACD4BE" d="M6805.156,2536.123l21.279-83.281l66.387,16.963l66.377,16.963l-7.09,27.764l-7.1,27.754l-38.623-9.863
		l-38.623-9.873l-14.18,55.518l-14.189,55.527l-27.764-7.1l-27.764-7.09L6805.156,2536.123z"/>
	<path fill="#ACD4BE" d="M6186.435,2200.068c4.434-16.357,304.639-864.101,306.396-864.931c0.967-0.781,87.451-3.115,191.875-5.225
		l190.254-3.848l165.078,94.648c90.85,52.012,165.625,95.547,166.406,96.514c0.82,1.758-142.227,889.658-146.172,906.133
		l-1.67,6.523l-436.914-111.65l-436.924-111.65L6186.435,2200.068z M6943.691,2194.277c1.787-7.002,6.211-32.354,9.951-56.084
		l6.689-43.291l-209.102-54.209c-191.055-49.326-209.277-54.502-208.418-57.881c1.543-6.035,28.779-83.418,33.428-94.58
		l3.857-10.068l199.16,50.889l198.896,50.83l1.416-5.547c1.787-7.002,55.537-338.105,55-339.023
		c-0.898-1.514-204.951-117.686-208.096-118.486c-3.613-0.928-237.92,3.223-239.98,4.238
		c-1.279,0.967-53.467,147.832-56.553,159.912l-2.285,8.926l54.316,13.877c37.178,9.502,54.502,13.154,55,11.221
		c0.977-3.857,29.551-83.467,30.098-83.594c0.059-0.234,29.492-0.684,65.332-1.045l65.02-0.869l56.807,32.256l56.826,32.265
		l-9.727,59.229c-5.244,32.598-10.498,65.205-11.563,72.393l-1.758,12.93l-189.492-48.428
		c-149.424-38.184-189.678-47.695-191.26-45.537c-0.85,1.328-25.508,70.635-54.697,153.682
		c-28.965,83.125-54.531,155.02-56.543,159.912l-3.74,8.555l274.219,70.078l274.209,70.068L6943.691,2194.277z"/>
</g>
<path fill="#ACD4BE" d="M55.468,229.206c0,10.864,6.312,20.255,15.471,24.704l-13.095-35.876
	C56.32,221.448,55.468,225.225,55.468,229.206z M101.45,227.821c0-3.396-1.219-5.743-2.262-7.571
	c-1.396-2.261-2.697-4.174-2.697-6.438c0-2.521,1.912-4.871,4.611-4.871c0.117,0,0.23,0.016,0.354,0.021
	c-4.885-4.474-11.389-7.204-18.539-7.204c-9.59,0-18.024,4.918-22.937,12.371c0.646,0.021,1.252,0.033,1.77,0.033
	c2.87,0,7.314-0.351,7.314-0.351c1.479-0.086,1.656,2.088,0.176,2.265c0,0-1.487,0.173-3.143,0.261l9.998,29.733l6.007-18.017
	l-4.275-11.718c-1.479-0.088-2.879-0.261-2.879-0.261c-1.48-0.089-1.308-2.352,0.174-2.266c0,0,4.532,0.352,7.229,0.352
	c2.872,0,7.315-0.352,7.315-0.352c1.48-0.086,1.656,2.09,0.176,2.266c0,0-1.488,0.173-3.141,0.261l9.92,29.509l2.74-9.146
	C100.751,233.127,101.45,230.171,101.45,227.821z M83.4,231.604l-8.237,23.935c2.461,0.726,5.062,1.118,7.754,1.118
	c3.197,0,6.264-0.553,9.117-1.555c-0.074-0.117-0.141-0.241-0.195-0.381L83.4,231.604z M107.007,216.036
	c0.117,0.875,0.186,1.813,0.186,2.822c0,2.787-0.521,5.918-2.088,9.832l-8.385,24.242c8.162-4.759,13.65-13.601,13.65-23.728
	C110.37,224.432,109.149,219.947,107.007,216.036z M50.918,229.206c0,17.646,14.356,32,31.999,32c17.645,0,32.002-14.354,32.002-32
	c0-17.645-14.357-32-32.002-32C65.274,197.206,50.918,211.561,50.918,229.206z M52.386,229.206
	c0-16.834,13.697-30.529,30.531-30.529c16.838,0,30.535,13.695,30.535,30.529c0,16.835-13.697,30.533-30.535,30.533
	C66.083,259.739,52.386,246.041,52.386,229.206z"/>
<g transform="translate(0.000000,225.000000) scale(0.100000,-0.100000)">
	<path fill="#ACD4BE" d="M2263.271,360.317c-161.987-78.867-346.66-250.327-436.103-407.441
		c-51.25-88.438-65.146-148.76-48.931-207.163c24.746-89.106,97.622-136.616,298.628-195.322
		c121.758-34.727,117.852-29.375,55.2-85.488c-105-95.293-148.647-164.688-150.478-239.395
		c-1.123-65.645,51.206-120.469,110.278-115.352c75.625,6.465,169.18,70.371,210.288,143.086
		c34.941,62.93,40.728,108.906,20.972,180.039c-9.146,32.949-22.544,69.551-28.862,80.703
		c-11.274,20.254-11.147,22.715,23.877,53.418c19.351,17.461,37.07,32.056,38.564,32.476c1.504,0.42,3.159-20.073,4.365-44.761
		c2.119-59.902,11.812-91.895,37.974-133.828c27.539-43.965,58.901-61.074,94.844-51.094c34.448,9.57,45.137,26.25,60.947,100.02
		c7.075,32.598,13.359,59.355,14.102,59.57c0.752,0.195,7.451-18.105,13.687-40.566c13.975-44.512,36.23-66.563,61.689-59.492
		c21.719,6.035,62.612,79.492,79.834,142.363c8.989,31.519,20.347,95.166,26.128,141.123
		c11.284,95.894,14.985,105.786,28.379,83.706c4.951-9.116,24.287-35.195,42.056-58.486l32.568-41.777l-40.146-73.242
		c-45.557-82.827-51.084-109.37-24.805-119.8c40.557-15.352,151.392,58.965,166.406,112.339c5.698,20.127,3.828,41.387-8.857,87.065
		c-18.301,65.894-15.679,102.915,9.497,172.007c15.684,42.271,25.044,52.124,30.654,31.914c1.875-6.743,17.93-29.712,36.021-51.304
		l31.733-38.774l-26.616-49.331c-14.937-27.539-29.038-58.071-31.04-68.306c-5.2-24.824,7.407-67.295,21.758-75.41
		c31.572-17.852,110.439,37.93,139.819,97.705c16.265,34.365,15.967,38.315,0.786,78.452c-8.892,23.345-13.97,44.517-10.85,47.803
		c2.373,3.071,28.081,15.054,56.787,27.861c129.375,56.899,265.195,32.524,288.486-51.343c5.82-20.967,3.149-34.619-12.744-61.616
		c-21.841-37.515-10.645-40.049,21.836-6.025c25.518,27.246,32.798,73.628,16.157,104.502
		c-27.998,54.321-77.622,84.893-155.034,96.475c-44.478,6.196-168.022-28.115-216.943-61.06
		c-32.822-21.221-35.063-21.841-51.006-10.942c-31.113,22.007-55.981,79.624-57.52,131.626
		c-0.752,43.345-1.582,46.338-16.177,49.546c-18.975,4.409-48.389-2.959-69.102-18.384c-11.27-8.779-16.304-25.498-18.926-62.52
		c-2.705-48.345-41.279-196.978-51.753-199.888c-18.721-5.195-56.538,93.188-55.825,145.811c-0.166,35.444-10.068,39.146-57.7,21.89
		c-43.135-16.016-50.293-30.913-58.491-114.644c-12.363-126.841-31.211-250.645-43.818-280.762
		c-11.855-29.902-13.145-31.074-22.544-17.539c-11.733,16.094-12.31,38.516-2.7,111.353c10.195,79.453-9.561,121.548-47.085,99.839
		c-11.899-6.528-14.976-4.16-21.631,19.805c-23.916,86.108-109.526,57.49-182.251-61.104
		c-25.703-41.011-49.712-67.837-93.848-103.491c-33.076-26.108-62.358-45.542-65.645-42.437
		c-2.334,2.598-41.934,17.402-87.402,32.993c-101.377,33.955-176.665,72.734-206.948,106.265
		c-18.423,19.888-25.249,35.732-33.398,73.799c-8.984,41.06-7.275,55.239,8.74,99.214c23.008,65.264,78.96,139.678,166.245,220.376
		c174.351,162.144,325.352,242.798,454.185,240.674c66.187-0.171,107.534-24.175,120.015-69.106
		c36.182-130.288-130.854-327.495-325.327-382.314c-61.191-17.803-73.052-18.677-122.51-9.023
		c-30.493,5.244-55.659,8.74-56.738,6.826c-3.247-5.742,31.943-39.521,54.492-51.006c87.725-45.801,249.761,9.683,392.656,134.053
		c32.451,28.369,69.766,65.356,83.452,82.866c53.457,68.882,80.044,185.151,59.038,260.781
		c-9.771,35.19-41.841,72.256-79.277,90.898C2571.357,447.49,2407.041,429.277,2263.271,360.317z M2524.062-259.273
		c6.865-24.712,5.693-125.049-1.626-177.095c-6.748-45.43-29.38-103.32-41.362-106.66c-11.23-3.105-40.264,54.961-44.707,88.398
		c-7.319,64.116-0.039,110.503,24.966,156.963C2489.038-246.422,2515.957-230.079,2524.062-259.273z M2238.554-526.485
		c11.729-16.113,22.925-62.207,23.213-95.195c-0.049-63.711-70.063-163.008-125.479-178.398
		c-72.627-20.176-83.398,82.48-18.794,172.227c23.511,31.523,96.978,106.777,108.003,110.645
		C2228.491-516.387,2234.443-520.372,2238.554-526.485z"/>
</g>
<path opacity="0.7" fill="#ACD4BE" d="M373.999,402.599c-12.937,2.877-24.208,1.709-25.166-2.6
	c-0.524-2.356-1.097-4.934-1.736-7.809c-0.151-0.679,0.044-1.399,0.393-2.138c3.36,2.783,12.997,3.257,23.903,0.833
	c10.906-2.425,19.435-6.938,21.299-10.881c0.628,0.521,1.11,1.088,1.261,1.768c0.503,2.26,1.035,4.659,1.737,7.809
	C396.647,393.89,386.933,399.724,373.999,402.599z M370.525,386.982c-12.936,2.876-24.206,1.708-25.164-2.6
	c-0.524-2.359-1.096-4.933-1.735-7.812c-0.092-0.412-0.026-0.85,0.096-1.296l0,0c0.063-0.275,0.164-0.557,0.297-0.839
	c3.359,2.78,12.996,3.257,23.902,0.831c10.907-2.424,19.436-6.939,21.3-10.882c0.24,0.201,0.452,0.412,0.626,0.636l0,0
	c0.297,0.352,0.543,0.719,0.635,1.133c0.503,2.261,1.035,4.658,1.736,7.81C393.176,378.273,383.459,384.106,370.525,386.982z
	 M367.053,371.362c-12.936,2.877-24.205,1.71-25.163-2.601c-0.274-1.234-0.565-2.536-0.869-3.905
	c-0.275-1.241-0.562-2.53-0.868-3.903c-0.958-4.311,8.755-10.143,21.691-13.018c12.934-2.877,24.206-1.711,25.165,2.6
	c0.271,1.218,0.559,2.511,0.868,3.904c0.266,1.194,0.547,2.457,0.868,3.904C389.702,362.654,379.987,368.486,367.053,371.362z
	 M362.713,351.84c-8.625,1.917-15.23,5.217-14.751,7.376c0.481,2.161,7.863,2.351,16.488,0.433
	c8.625-1.917,15.23-5.218,14.751-7.378C378.719,350.111,371.338,349.923,362.713,351.84z"/>
<title>React.js_logo</title>
<desc>Created with Sketch.</desc>
<g opacity="0.4">
	<path fill="#ACD4BE" d="M322.232,65.753c-0.979-0.644-1.729-0.996-2.104-1.172l-4.28,6.512c0.376,0.388,0.883,0.791,1.617,1.273
		c2.595,1.706,5.048,1.494,6.528-0.758C325.41,69.454,324.681,67.362,322.232,65.753z"/>
	<path fill="#ACD4BE" d="M339.402,52.217c-13.515-8.882-31.691-5.122-40.573,8.392c-8.882,13.515-5.122,31.691,8.393,40.573
		s31.691,5.122,40.573-8.393C356.676,79.275,352.917,61.099,339.402,52.217z M323.005,77.059c-2.273,0.469-4.926-0.293-7.424-1.935
		c-0.637-0.418-1.24-0.885-1.649-1.224l-4.73,7.198l-3.429-2.253l12.454-18.95c1.434,0.592,3.244,1.571,5.595,3.116
		c2.546,1.673,4.102,3.467,4.65,5.3c0.516,1.671,0.252,3.672-0.938,5.483C326.344,75.607,324.759,76.739,323.005,77.059z
		 M323.52,90.999c-1.665-1.094-2.926-2.484-3.567-3.747l2.391-2.145c0.462,1.005,1.658,2.492,2.93,3.328
		c1.517,0.997,2.623,0.812,3.201-0.068c0.612-0.93,0.346-1.806-0.934-3.487c-2.082-2.7-2.242-4.909-1.18-6.526
		c1.609-2.449,4.872-3.039,8.104-0.915c1.518,0.998,2.631,2.291,3.126,3.247l-2.326,2.046c-0.361-0.729-1.199-1.91-2.423-2.714
		c-1.272-0.836-2.296-0.667-2.875,0.214c-0.58,0.881-0.232,1.741,1.144,3.486c1.885,2.571,2.225,4.618,0.874,6.674
		C330.341,92.888,327.192,93.413,323.52,90.999z"/>
</g>
<g>
	<path fill="#ACD4BE" d="M536.915,289.026c3.063-1.754,7.054-1.762,10.114,0c15.397,8.7,30.801,17.387,46.195,26.093
		c2.896,1.632,4.833,4.854,4.803,8.19v52.346c0.021,3.476-2.105,6.775-5.161,8.369c-15.347,8.652-30.687,17.316-46.031,25.969
		c-3.127,1.787-7.196,1.649-10.226-0.285c-4.602-2.666-9.211-5.32-13.813-7.985c-0.939-0.562-2-1.007-2.664-1.919
		c0.588-0.791,1.637-0.889,2.489-1.234c1.921-0.611,3.685-1.592,5.449-2.543c0.446-0.305,0.991-0.188,1.419,0.086
		c3.934,2.255,7.834,4.576,11.781,6.811c0.843,0.486,1.695-0.159,2.415-0.561c15.061-8.512,30.14-16.991,45.197-25.506
		c0.558-0.269,0.866-0.86,0.821-1.472c0.01-17.269,0.002-34.539,0.005-51.807c0.063-0.693-0.337-1.331-0.964-1.615
		c-15.295-8.612-30.58-17.239-45.872-25.854c-0.542-0.373-1.259-0.373-1.802-0.002c-15.291,8.617-30.574,17.252-45.866,25.864
		c-0.624,0.284-1.044,0.911-0.97,1.607c0.003,17.268,0,34.538,0,51.81c-0.055,0.61,0.277,1.19,0.832,1.453
		c4.08,2.314,8.166,4.611,12.25,6.918c2.3,1.238,5.124,1.974,7.658,1.025c2.236-0.803,3.805-3.085,3.762-5.459
		c0.021-17.168-0.01-34.338,0.016-51.502c-0.056-0.762,0.668-1.393,1.408-1.32c1.961-0.014,3.924-0.026,5.885,0.006
		c0.818-0.02,1.382,0.802,1.28,1.569c-0.008,17.276,0.021,34.552-0.013,51.828c0.005,4.604-1.887,9.614-6.146,11.867
		c-5.247,2.718-11.731,2.142-16.915-0.465c-4.486-2.239-8.769-4.883-13.176-7.282c-3.063-1.586-5.182-4.898-5.16-8.37V323.31
		c-0.031-3.406,1.982-6.687,4.969-8.294C506.23,306.357,521.572,297.69,536.915,289.026z"/>
	<path fill="#ACD4BE" d="M550.302,325.286c6.692-0.431,13.856-0.255,19.88,3.042c4.662,2.526,7.247,7.829,7.329,13.009
		c-0.13,0.699-0.86,1.084-1.527,1.037c-1.942-0.003-3.884,0.025-5.825-0.014c-0.824,0.031-1.303-0.728-1.406-1.456
		c-0.559-2.479-1.91-4.933-4.242-6.129c-3.582-1.792-7.734-1.702-11.639-1.665c-2.852,0.151-5.916,0.398-8.332,2.074
		c-1.854,1.27-2.417,3.834-1.756,5.898c0.625,1.482,2.336,1.96,3.736,2.401c8.064,2.108,16.611,1.899,24.522,4.675
		c3.275,1.133,6.479,3.332,7.601,6.762c1.467,4.596,0.824,10.09-2.446,13.779c-2.651,3.037-6.515,4.689-10.366,5.587
		c-5.125,1.144-10.443,1.172-15.648,0.665c-4.893-0.559-9.985-1.844-13.764-5.178c-3.23-2.806-4.809-7.176-4.651-11.395
		c0.037-0.712,0.747-1.209,1.429-1.15c1.955-0.016,3.911-0.021,5.867,0.002c0.78-0.055,1.359,0.619,1.399,1.355
		c0.36,2.361,1.248,4.84,3.308,6.24c3.974,2.564,8.961,2.389,13.512,2.461c3.77-0.168,8.001-0.219,11.078-2.711
		c1.623-1.42,2.104-3.799,1.665-5.844c-0.476-1.727-2.282-2.531-3.833-3.059c-7.963-2.518-16.604-1.604-24.489-4.452
		c-3.201-1.132-6.296-3.271-7.526-6.56c-1.716-4.654-0.93-10.41,2.684-13.977C540.382,327.141,545.467,325.775,550.302,325.286
		L550.302,325.286z"/>
</g>
<g transform="translate(0.000000,278.000000) scale(0.100000,-0.100000)">
	<path fill="#ACD4BE" d="M3195.014-589.835c-3.076-2.109-10.933-6.729-17.314-10.059c-23.247-12.383-23.828-12.9-22.642-15.303
		c0.698-1.26,6.265-3.057,12.456-3.77c6.23-0.889,12.656-2.451,14.282-3.828c3.496-2.891,23.623-77.138,23.604-87.314
		c-0.195-6.777-3.579-10.41-14.258-14.697c-3.296-1.25-3.882-2.5-2.744-6.729l1.348-5.098l35.43,8.877l35.4,9.063l-1.909,5.137
		c-1.816,4.775-2.671,5.264-10.654,5.146c-4.888-0.02-9.966,0.625-11.26,1.377c-1.938,1.104-5.776,13.535-14.058,44.6
		c-12.964,48.701-12.969,43.984,0.566,55.927c4.834,4.385,9.648,6.758,17.793,8.936c9.492,2.52,12.227,2.52,18.359-0.029
		c13.081-5.43,16.509-12.139,27.769-54.394c6.948-26.152,9.409-37.49,8.291-39.414c-0.732-1.299-4.834-4.375-9.087-6.787
		c-6.812-3.799-7.48-4.707-6.67-9.775l0.889-5.391l34.78,9.258l34.956,9.316l-1.528,5.752c-1.44,5.449-1.865,5.693-9.268,4.814
		c-14.688-1.543-13.589-3.613-27.241,46.357l-12.095,44.043l8.955,8.018c11.489,10.137,26.27,14.619,36.46,11.162
		c8.818-3.105,14.702-8.086,18.735-15.742c4.561-8.242,20.547-68.301,19.79-74.345c-0.381-3.35-2.417-5.908-7.92-9.16
		c-6.699-4.17-7.368-5.078-6.621-9.951l0.952-5.576l34.775,9.258l34.971,9.307l-1.143,4.238c-0.62,2.393-1.255,4.775-1.655,5.557
		c-0.181,0.684-4.438,1.006-9.302,0.801c-14.561-0.596-13.291-2.627-26.475,44.189c-9.81,34.121-12.71,42.979-16.807,48.789
		c-14.399,19.98-39.229,25.186-59.429,12.344c-6.973-4.58-20.928-17.744-28.911-27.314c-1.797-2.119-4.209-1.299-13.906,4.463
		c-13.198,7.949-23.101,8.945-35.376,3.867c-8.174-3.457-24.336-16.484-30.981-24.971c-7.017-9.131-9.37-8.486-11.025,2.51
		c-0.64,5.117-2.012,9.648-2.969,9.756C3201.357-586.349,3198.1-587.765,3195.014-589.835z"/>
	<path fill="#ACD4BE" d="M3483.364-513.077c-18.384-10.176-32.29-25.508-37.666-41.484c-10.85-32.314,8.892-80.498,37.91-92.588
		c20.84-8.633,45.684-7.109,65.078,4.053c29.824,17.031,42.72,41.563,39.302,74.268c-3.643,34.824-28.345,62.051-59.15,65.107
		C3515.19-502.247,3495.4-506.427,3483.364-513.077z M3511.059-522.247c10.42-0.879,25.82-10.938,33.911-22.236
		c12.402-17.236,20.562-52.676,15.386-67.324c-3.921-11.201-8.75-15.605-21.133-19.619c-9.883-3.174-12.559-3.35-21.846-1.279
		c-21.284,4.883-36.006,22.598-44.209,53.486c-4.663,17.461-4.824,19.434-2.554,30.039
		C3474.917-529.132,3488.237-520.499,3511.059-522.247z"/>
	<path fill="#ACD4BE" d="M3637.011-473.097c-4.434-3.164-14.229-8.682-21.792-12.344c-13.486-6.66-17.402-10.449-14.58-14.238
		c0.83-1.045,4.561-2.051,8.433-2.295c4.004-0.039,10.122-1.123,13.662-2.168l6.714-2.041l11.04-44.141
		c7.91-31.152,10.859-44.902,9.688-46.66c-0.742-1.289-4.824-4.375-9.092-6.787c-7.144-3.896-7.51-4.541-6.445-10.625l1.118-6.24
		l36.069,9.951l35.996,10.146l-1.104,6.24c-1.123,6.25-1.123,6.25-9.375,5.137c-13.965-2.07-13.633-2.725-26.465,43.467
		c-12.949,46.553-12.979,46.709-1.211,56.387c10.488,8.438,25.693,12.119,35.879,8.662c14.209-4.951,16.309-8.74,27.969-52.529
		c5.596-21.055,9.883-39.17,9.395-40.039c-0.498-0.859-4.375-3.34-8.486-5.693c-7.139-3.916-7.5-4.561-6.436-10.645l1.113-6.23
		l35.645,9.482l35.801,9.531l-1.719,6.465c-1.66,6.26-1.836,6.221-11.074,6.133c-5.195-0.293-10.449,0.313-11.523,0.938
		c-1.504,0.85-6.934,17.217-14.316,42.139c-14.219,48.584-17.188,54.326-32.646,63.291c-10.967,6.348-20.342,7.49-32.91,4.16
		c-10.186-2.725-18.525-8.936-30.996-22.803l-10.107-11.23l-3.223,10.039c-1.836,5.498-4.004,10.205-5.039,10.098
		C3646.084-467.579,3641.465-470.089,3637.011-473.097z"/>
	<path fill="#ACD4BE" d="M3840.097-418.116c-13.008-7.822-25.586-20.625-29.531-30.391c-6.875-16.387-3.887-37.949,6.973-52.119
		c5.352-7.129,16.563-13.77,25.977-15.635c4.766-0.908,8.789-2.393,9.023-3.223c0.215-0.85-3.945-6.338-9.434-12.334
		c-6.035-6.689-9.531-11.992-9.082-13.672c1.406-5.283,10.098-12.041,18.164-14.268c4.473-1.162,8.066-2.383,8.203-2.891
		c0.137-0.518-3.242-4.863-7.207-9.746c-12.344-15.088-17.891-26.377-16.777-34.629c1.914-15.313,17.227-28.486,36.836-31.816
		c12.754-2.236,37.871,2.451,52.578,10.01c20.371,10.137,40.977,34.521,44.902,53.193c4.121,19.287-1.25,36.758-13.848,45.205
		c-12.148,8.057-20.156,8.086-61.386,0.557c-23.242-4.189-30.156-3.486-31.953,3.311c-1.602,5.947,1.602,8.965,15.176,15.293
		c34.765,16.191,47.832,42.188,36.914,73.633l-4.141,12.168l8.652,2.305c9.297,2.646,12.402,5.273,14.004,12.275
		c1.074,4.092-1.328,16.543-3.027,16.074c-0.332-0.078-2.793-2.373-5.352-5.049c-6.543-6.826-20.566-10.195-38.437-9.307
		C3868.867-408.097,3851.601-411.417,3840.097-418.116z M3864.551-425.978c13.398-1.885,22.93-12.432,27.988-30.693
		c5.332-20.039,1.66-33.555-10.898-39.629c-8.73-4.131-17.5-3.936-26.348,0.605c-10.723,5.518-17.695,15.293-21.719,30.41
		c-3.75,14.092-2.363,23.896,4.121,30.908C3843.066-428.604,3855.449-424.571,3864.551-425.978z M3915.429-553.653
		c21.543,1.748,32.363-4.814,35.078-21.172c1.602-10.107-0.488-17.227-7.402-25.42c-6.953-8.037-15.957-12.432-32.969-16.045
		c-17.715-3.828-27.109-2.676-38.222,4.912c-15.449,10.234-16.504,27.227-2.734,42.334c5.684,6.055,7.91,7.197,20.977,10.674
		C3898.301-556.192,3909.57-554.112,3915.429-553.653z"/>
	<path fill="#ACD4BE" d="M4016.21-369.601c-11.465-5.43-26.543-17.783-33.594-27.48c-19.023-26.152-16.094-64.443,7.07-92.09
		c9.922-12.07,18.867-17.686,32.422-20.771c32.93-7.617,68.145,7.578,84.707,36.143c25.156,43.418-3.145,106.025-50.156,110.605
		C4046.21-362.169,4024.921-365.47,4016.21-369.601z M4037.167-381.466c7.5-0.166,19.18-5.801,26.426-12.598
		c10.684-10.059,16.367-20.547,21.934-41.406c4.648-17.48,4.961-20.674,3.32-30.215c-2.754-14.893-8.086-20.859-23.008-25.557
		c-10.273-3.096-12.949-3.262-21.484-1.182c-19.551,5.166-33.809,21.182-42.539,48.477c-6.875,21.797-6.895,34.141,0.059,46.172
		C4008.867-385.743,4019.57-380.899,4037.167-381.466z"/>
	<path fill="#ACD4BE" d="M3046.098-674.923c-23.174-10.527-42.3-19.248-42.3-19.248c-0.142-0.225,2.314-12.109,5.381-26.377
		c7.969-36.777,18.931-60.928,29.922-66.006c4.766-2.188,8.32,2.217,22.349,26.66c12.148,21.25,19.248,39.658,24.126,63.682
		c3.296,15.596,5.625,41.67,3.682,40.781C3088.789-655.733,3069.331-664.552,3046.098-674.923z"/>
</g>
<g opacity="0.2">
	<g>
		<path fill="#5AC3B9" d="M670.25,215.37c-1.068,1.771-2.033,3.617-3.223,5.305c-5.936,8.418-14.064,13.34-24.234,14.873
			c-5.117,0.771-10.246,0.607-15.316-0.354c-5.393-1.023-10.281-3.342-14.795-6.402c-9.242-6.27-15.617-14.668-18.445-25.553
			c-1.885-7.258-1.705-14.447,1.492-21.355c0.834-1.801,1.959-3.486,3.109-5.115c1.33-1.881,2.834-3.639,4.373-5.389
			c-0.262,0.609-0.537,1.215-0.781,1.83c-2.875,7.26-2.906,14.635-0.697,22.031c3.006,10.066,9.213,17.787,17.83,23.631
			c7.729,5.242,16.299,7.75,25.645,7.486c7.098-0.201,13.766-1.908,19.543-6.215c1.928-1.436,3.617-3.191,5.414-4.799
			C670.193,215.352,670.221,215.36,670.25,215.37z"/>
		<path fill="#5AC3B9" d="M672.197,195.405c-0.58,1.146-1.084,2.311-1.73,3.391c-4.152,6.939-10.303,10.9-18.26,12.15
			c-4.086,0.643-8.176,0.523-12.203-0.266c-2.916-0.57-5.637-1.828-8.197-3.359c-7.408-4.434-12.684-10.592-14.885-19.045
			c-1.877-7.201-0.877-13.98,3.633-20.082c0.883-1.193,1.719-2.418,2.578-3.627c0.029-0.041,0.076-0.07,0.182-0.162
			c-0.033,0.158-0.035,0.26-0.074,0.344c-3.27,7.094-3.004,14.227,0.363,21.105c5.271,10.775,14.037,16.994,25.957,18.5
			c6.688,0.846,12.912-0.635,18.307-4.832C669.412,198.319,670.725,196.821,672.197,195.405z"/>
		<path fill="#5AC3B9" d="M639.824,160.573c-0.33,1.346-0.779,2.654-0.957,3.998c-0.578,4.342,0.715,8.244,3.145,11.779
			c3.648,5.311,8.758,8.229,15.141,8.973c2.033,0.238,4.055,0.225,6.053-0.25c2.266-0.539,3.17-1.084,6.355-3.777
			c-0.195,0.373-0.295,0.598-0.422,0.807c-3,4.926-7.381,7.383-13.154,7.619c-9.883,0.4-18.039-7.068-19.867-14.758
			c-1.082-4.549-0.363-8.773,2.402-12.598C638.955,161.764,639.393,161.165,639.824,160.573z"/>
	</g>
</g>
<g opacity="0.3">
	<path fill="#5AC3B9" d="M123.216,278.954c-14.287-7.577-32.031-2.132-39.609,12.154c-7.577,14.287-2.133,32.031,12.154,39.609
		s32.031,2.133,39.609-12.154C142.948,304.276,137.502,286.531,123.216,278.954z M100.615,309.813
		c-2.721,0.878-5.986,0.407-9.454-1.433c-1.604-0.852-2.999-1.724-4.159-2.537l-0.179-0.162l10.57-19.929l0.233,0.057
		c1.535,0.482,3.43,1.287,5.293,2.275c3.21,1.703,5.075,3.688,5.96,6.147c0.879,2.721,0.491,5.7-1.238,8.961
		C105.829,306.609,103.415,308.91,100.615,309.813z M117.411,322.038l-3.313-1.758l1.632-6.828c0.266-1.252,0.607-2.396,1.005-3.646
		c-0.864,1.134-1.699,2.083-2.453,2.878l-4.787,5.154l-3.313-1.758l4.127-16.912l3.728,1.977l-2.224,7.443
		c-0.421,1.167-0.818,2.418-1.215,3.666c0.649-0.849,1.403-1.643,2.076-2.414l5.684-6.337l2.95,1.565l-1.83,7.452
		c-0.428,1.431-0.772,2.708-1.115,3.853c0.705-0.953,1.487-1.931,2.461-3.139l4.884-5.834l3.624,1.923L117.411,322.038z"/>
	<path fill="#5AC3B9" d="M101.42,291.536c-0.983-0.521-1.658-0.747-1.997-0.86l-7.304,13.769c0.387,0.271,0.956,0.574,1.474,0.849
		l0.052,0.027c1.969,1.044,3.822,1.298,5.517,0.604c1.746-0.666,3.304-2.228,4.594-4.66c1.208-2.277,1.545-4.288,1.01-6.031
		C104.303,293.729,103.18,292.47,101.42,291.536z"/>
</g>
<g transform="translate(0.000000,1023.000000) scale(0.100000,-0.100000)" opacity="0.7">
	<path fill="#ACD4BE" d="M4018.32,8419.671l35.596,58.916l-57.207,34.565l-57.197,34.556l-9.023-14.937l-9.033-14.951l40.127-24.243
		l40.127-24.243l-4.014-6.655c-2.227-3.677-9.609-15.298-16.348-25.688l-12.207-19.067l-39.619,23.945l-39.531,23.882l-10.85-17.939
		l-10.82-17.925l57.197-34.561l57.207-34.565L4018.32,8419.671z"/>
	<path fill="#ACD4BE" d="M3876.328,8473.997l21.68,35.864l-40.576,24.507l-40.557,24.502l2.686,4.438
		c1.494,2.476,4.238,6.416,5.928,8.662l3.33,4.155l39.961-24.141l40.049-24.199l8.506,14.092l8.525,14.087l-58.076,35.088
		l-58.047,35.068l-20.801-34.404l-20.83-34.502l7.969-5.513c4.395-3.12,23.291-14.893,41.904-26.133l33.975-20.532l-4.131-6.831
		l-4.121-6.826l-42.256,25.532l-42.266,25.537l-10.322-17.075l-10.322-17.075l58.057-35.078l58.066-35.083L3876.328,8473.997z"/>
	<path fill="#ACD4BE" d="M3747.392,8551.907l21.67,35.854l-40.127,24.248l-40.127,24.248l5.352,8.877l5.361,8.872l20.615-11.626
		c11.396-6.421,29.531-17.261,40.176-24.16l19.58-12.529l8.506,14.087l8.516,14.092l-58.066,35.078l-58.037,35.073l-20.898-34.575
		l-20.898-34.58l42.275-25.532l42.256-25.537l-4.385-7.266l-4.375-7.261l-42.285,25.537l-42.256,25.537l-10.317-17.07l-10.322-17.08
		l58.062-35.083l58.066-35.078L3747.392,8551.907z"/>
	<path fill="#ACD4BE" d="M4210.937,8457.381c1.533,3.14,5.596,11.777,9.102,19.316c7.217,15.229,16.738,34.644,63.691,130.518
		c18.008,36.553,53.408,109.004,78.779,161.035c25.244,51.997,57.451,117.861,71.357,146.274
		c58.037,118.447,66.709,136.06,83.096,169.966l17.188,35.542l-3.174,3.428c-1.777,1.895-11.885,12.549-22.363,23.779
		c-10.605,11.177-31.016,32.964-45.361,48.384c-14.463,15.381-41.641,44.507-60.566,64.683
		c-18.936,20.176-44.395,47.451-56.592,60.654l-22.314,23.843l-5.449,1.563c-3.037,0.781-21.729,5.903-41.484,11.421
		c-19.736,5.518-54.824,15.161-77.891,21.528c-23.086,6.372-54.346,15.015-69.395,19.214c-15.117,4.116-38.994,10.728-52.998,14.521
		c-13.955,3.896-31.23,8.73-38.164,10.718c-10.42,3.022-12.969,3.403-14.063,2.202c-1.68-1.792-68.682-93.022-138.379-188.535
		c-27.813-38.11-62.178-84.946-76.387-104.214c-36.611-49.795-82.373-112.236-155.996-212.861
		c-35.073-48.037-64.678-88.545-65.771-89.976l-1.914-2.568l311.133-187.988l311.22-188.042L4210.937,8457.381z M3673.359,8844.3
		c-0.156,0.327,8.066,11.792,18.057,25.459c10.078,13.604,39.326,53.506,65.02,88.687c25.625,35.098,78.027,106.587,116.23,158.813
		c38.261,52.158,90.967,124.16,117.177,159.971c26.182,35.811,50.342,68.652,53.77,72.998l6.182,7.905l25.85-7.349
		c14.277-3.96,37.334-10.557,51.289-14.434c130.4-36.709,156.602-44.258,159.502-46.021l1.973-1.182l-21.826-36.118
		c-23.262-38.511-25.371-42.598-23.154-43.936c2.559-1.553,130.254-131.26,143.115-145.454c0.967-0.933-0.381-4.893-6.475-19.033
		c-13.809-32.109-32.754-71.367-46.943-97.534l-6.553-12.002l-35.293,21.445c-19.463,11.758-36.719,22.544-38.398,24.019
		l-3.057,2.656l14.453,29.146c19.453,39.302,18.359,36.338,15.195,39.775c-5.215,5.483-86.064,77.876-86.904,77.803
		c-0.146-0.029-18.018-29.214-39.707-64.712l-39.404-64.658l95.459-57.085l95.518-57.017l-14.482-30.527
		c-8.018-16.724-17.295-35.586-20.713-41.792l-6.279-11.372l-5.957,0.571c-5.859,0.513-26.553,3.33-138.418,18.604
		c-58.428,8.032-94.15,12.588-93.555,12.007c0.205-0.254,44.268-27.217,97.949-60.117c53.643-32.764,97.666-60.181,97.813-60.728
		c0.498-2.056-27.461-63.589-33.457-73.491l-2.217-3.672l-106.738,64.487l-106.719,64.478l-22.188-36.719l-22.188-36.709
		l-32.002,18.984C3832.881,8747.576,3673.437,8843.67,3673.359,8844.3z"/>
</g>
<g>
	<path fill="#ACD4BE" d="M537.826,83.652L537.826,83.652c0.394,0.543,0.894,1.132,1.288,1.675l1.632,2.286l1.701-2.249l-2.659-0.927
		C539.119,84.211,538.439,83.905,537.826,83.652z"/>
	<path fill="#ACD4BE" d="M530.839,75.949c-4.65,6.146-3.437,14.907,2.709,19.558c6.146,4.65,14.906,3.437,19.557-2.708
		c4.651-6.146,3.438-14.908-2.708-19.558C544.252,68.589,535.489,69.803,530.839,75.949z M546.914,87.098l-3.062-1.091l-2.089,2.76
		l1.898,2.627l-1.247,1.648l-6.6-9.372l1.533-2.026l10.862,3.738L546.914,87.098z M549.896,83.156l-1.213,1.603l-6.279-4.751
		l1.213-1.604L549.896,83.156z M542.081,78.537c-0.404,0.534-1.035,0.582-1.503,0.228c-0.49-0.371-0.599-1.013-0.194-1.547
		c0.404-0.535,1.036-0.583,1.542-0.234C542.394,77.339,542.503,77.981,542.081,78.537z"/>
</g>
<g id="Layer_2" opacity="0.8">
	<path fill="none" stroke="#ACD4BE" stroke-width="6" stroke-miterlimit="10" d="M516.332,210.074
		c8.219,13.654,13.895,27.518,16.358,39.064c2.969,13.911,1.22,24.613-4.225,27.891c-5.675,3.416-16.582-0.248-28.13-10.154
		c-8.73-7.49-17.759-18.827-25.56-31.788c-7.999-13.289-14.055-26.787-16.514-38.191c-3.113-14.433-0.982-25.537,4.584-28.888
		c5.4-3.25,15.438-0.077,26.238,8.9C498.209,184.493,508.034,196.287,516.332,210.074z"/>
	<path fill="none" stroke="#ACD4BE" stroke-width="6" stroke-miterlimit="10" d="M495.101,198.333
		c15.934-0.298,30.778,1.711,42.012,5.346c13.534,4.377,21.933,11.24,22.052,17.594c0.124,6.621-8.499,14.24-22.85,19.295
		c-10.85,3.821-25.181,5.978-40.307,6.262c-15.508,0.29-30.226-1.208-41.335-4.774c-14.057-4.514-22.611-11.907-22.732-18.402
		c-0.118-6.303,7.646-13.414,20.817-18.284C463.887,201.253,479.012,198.634,495.101,198.333z"/>
	<path fill="none" stroke="#ACD4BE" stroke-width="6" stroke-miterlimit="10" d="M474.319,210.864
		c7.7-13.953,16.854-25.812,25.612-33.728c10.552-9.54,20.693-13.389,26.257-10.319c5.798,3.2,8.093,14.476,5.305,29.434
		c-2.108,11.308-7.396,24.801-14.705,38.046c-7.493,13.581-16.141,25.584-24.779,33.426c-10.931,9.926-21.608,13.645-27.296,10.506
		c-5.52-3.045-7.804-13.322-5.443-27.167C461.262,239.365,466.546,224.954,474.319,210.864z"/>
</g>
<circle fill="#ACD4BE" stroke="#ACD4BE" stroke-width="6" stroke-miterlimit="10" cx="495.475" cy="222.584" r="7.831"/>
</svg>
