<?xml version="1.0" encoding="utf-8"?>
<!-- Generator: Adobe Illustrator 16.0.0, SVG Export Plug-In . SVG Version: 6.00 Build 0)  -->
<!DOCTYPE svg PUBLIC "-//W3C//DTD SVG 1.1//EN" "http://www.w3.org/Graphics/SVG/1.1/DTD/svg11.dtd">
<svg version="1.1" id="Layer_1" xmlns="http://www.w3.org/2000/svg" xmlns:xlink="http://www.w3.org/1999/xlink" x="0px" y="0px"
	 width="75px" height="75px" viewBox="82.595 410.719 75 75" enable-background="new 82.595 410.719 75 75" xml:space="preserve">
<g transform="translate(0.000000,512.000000) scale(0.100000,-0.100000)">
	<path d="M1040.679,890.166v-39.463h13.154h13.154v13.154v13.154h12.583h12.578v-13.154v-13.154h13.154h13.154v39.463v39.463
		h-13.154h-13.037l-0.347-12.813l-0.342-12.93h-12.007h-12.012l-0.342,12.93l-0.342,12.813h-13.042h-13.154V890.166
		L1040.679,890.166z"/>
	<path d="M1129.897,916.474V903.32h11.436h11.436v-26.309v-26.309h13.154h13.154v26.309v26.309h11.44h11.436v13.154v13.154h-36.03
		h-36.025V916.474L1129.897,916.474z"/>
	<path d="M1214.536,890.166v-39.463h12.583h12.578l0.234,19.219l0.337,19.102l8.579-13.379c4.692-7.441,8.926-13.271,9.385-13.154
		c0.454,0.107,4.688,6.172,9.38,13.379l8.687,13.154v-19.102v-19.219h13.154h13.154v39.463v39.463h-13.608h-13.613l-7.202-11.67
		c-3.892-6.523-7.778-12.695-8.467-13.838c-1.255-1.836-2.402-0.459-9.834,11.66l-8.354,13.848h-13.496h-13.496V890.166
		L1214.536,890.166z"/>
	<path d="M1316.333,890.166v-39.463h31.455h31.455v13.154v13.154h-18.301h-18.301v26.309v26.309h-13.154h-13.154V890.166
		L1316.333,890.166z"/>
	<path d="M1002.935,811.015c0.112-7.783,37.285-418.974,37.974-419.541c0.342-0.459,38.545-11.328,84.756-24.131l84.185-23.34
		l84.18,23.34c46.323,12.803,84.531,23.672,84.985,24.014c0.571,0.684,37.861,411.875,37.974,419.658v3.086h-207.026h-207.026
		V811.015z M1339.097,722.373c0-3.32-0.913-15.098-1.943-26.084l-1.948-20.01l-99.165-0.342
		c-90.586-0.234-99.282-0.459-99.282-2.061c0-2.861,3.32-40.381,4.116-45.869l0.576-4.922h94.36h94.248v-2.627
		c0-3.311-13.726-156.699-14.067-157.041c-0.571-0.576-104.541-29.053-106.03-29.053c-1.714,0-105.459,28.477-106.26,29.16
		c-0.454,0.576-6.978,71.836-6.978,77.558v4.229h25.737c17.617,0,25.737-0.342,25.737-1.26c0-1.826,3.657-40.488,3.887-40.605
		c0-0.107,13.037-3.662,28.94-7.891l28.823-7.773l28.936,7.881l28.936,7.9l2.407,27.451c1.372,15.098,2.744,30.195,3.086,33.516
		l0.688,5.947h-89.79c-70.801,0-89.785,0.342-90.244,1.484c-0.229,0.684-3.315,34.316-6.865,74.57
		c-3.433,40.264-6.631,75.156-6.978,77.559l-0.684,4.229h129.937h129.932L1339.097,722.373z"/>
</g>
</svg>
