<?xml version="1.0" encoding="utf-8"?>
<!-- Generator: Adobe Illustrator 16.0.0, SVG Export Plug-In . SVG Version: 6.00 Build 0)  -->
<!DOCTYPE svg PUBLIC "-//W3C//DTD SVG 1.1//EN" "http://www.w3.org/Graphics/SVG/1.1/DTD/svg11.dtd">
<svg version="1.1" id="Layer_1" xmlns="http://www.w3.org/2000/svg" xmlns:xlink="http://www.w3.org/1999/xlink" x="0px" y="0px"
	 width="384px" height="512px" viewBox="64 0 384 512" enable-background="new 64 0 384 512" xml:space="preserve">
<path fill="#2F2F2F" stroke="#2F2F2F" stroke-miterlimit="10" d="M256,0C149.969,0,64,85.969,64,192
	c0,43.188,14.25,83,38.313,115.094L256,512l153.688-204.906C433.75,275,448,235.188,448,192C448,85.969,362.031,0,256,0z M256,320
	c-70.688,0-128-57.313-128-128c0-70.687,57.313-128,128-128c70.688,0,128,57.313,128,128C384,262.688,326.688,320,256,320z"/>
<line fill="#2F2F2F" stroke="#2F2F2F" stroke-width="37" stroke-miterlimit="10" x1="192.606" y1="233.658" x2="192.605" y2="155.889"/>
<line fill="#2F2F2F" stroke="#2F2F2F" stroke-width="37" stroke-miterlimit="10" x1="192.605" y1="155.889" x2="302.805" y2="117.012"/>
<line fill="#2F2F2F" stroke="#2F2F2F" stroke-width="37" stroke-miterlimit="10" x1="192.606" y1="233.658" x2="303.164" y2="272.379"/>
<line fill="#2F2F2F" stroke="#2F2F2F" stroke-width="37" stroke-miterlimit="10" x1="302.805" y1="272.119" x2="302.803" y2="194.352"/>
<line fill="#2F2F2F" stroke="#2F2F2F" stroke-width="37" stroke-miterlimit="10" x1="303.164" y1="156.29" x2="303.164" y2="181.472"/>
<g id="XMLID_1_">
	<g>
		<path fill="#2F2F2F" stroke="#2F2F2F" stroke-miterlimit="10" d="M186.76,138.695l6.669,17.312h-18.945
			C174.485,156.007,173.15,143.557,186.76,138.695z"/>
	</g>
	<g>
		<path fill="#2F2F2F" stroke="#2F2F2F" stroke-miterlimit="10" d="M186.76,138.695c-13.61,4.861-12.275,17.312-12.275,17.312
			h18.945L186.76,138.695z"/>
	</g>
</g>
<g id="XMLID_3_">
	<g>
		<path fill="#2F2F2F" stroke="#2F2F2F" stroke-miterlimit="10" d="M186.765,250.869l6.669-17.312h-18.945
			C174.489,233.557,173.154,246.007,186.765,250.869z"/>
	</g>
	<g>
		<path fill="#2F2F2F" stroke="#2F2F2F" stroke-miterlimit="10" d="M186.765,250.869c-13.61-4.861-12.275-17.312-12.275-17.312
			h18.945L186.765,250.869z"/>
	</g>
</g>
<path fill="#2F2F2F" stroke="#2F2F2F" stroke-width="0.1" stroke-miterlimit="10" d="M297.122,289.775
	c0,0,24.088,6.363,24.088-17.396c0-23.76-18.148-2.912-18.148-2.912L297.122,289.775z"/>
</svg>
