<?xml version="1.0" encoding="utf-8"?>
<!-- Generator: Adobe Illustrator 16.0.0, SVG Export Plug-In . SVG Version: 6.00 Build 0)  -->
<!DOCTYPE svg PUBLIC "-//W3C//DTD SVG 1.1//EN" "http://www.w3.org/Graphics/SVG/1.1/DTD/svg11.dtd">
<svg version="1.1" id="Layer_1" xmlns="http://www.w3.org/2000/svg" xmlns:xlink="http://www.w3.org/1999/xlink" x="0px" y="0px"
	 width="75px" height="75px" viewBox="218.5 218.5 75 75" enable-background="new 218.5 218.5 75 75" xml:space="preserve">
<text transform="matrix(1 0 0 1 168.7832 543.8096)" fill="#FFFF00" font-family="'Verdana-Bold'" font-size="20">simpleicon.com</text>
<text transform="matrix(1 0 0 1 9.1929 567.8096)" fill="#FFFF00" font-family="'Verdana'" font-size="20">Collection Of Flat Icon, Symbols And Glyph Icons</text>
<g>
	<path d="M257.884,274.477c-0.825-0.61-0.912-1.526-0.912-1.526l-0.31-1.986h-9.909l-0.312,1.986c0,0-0.087,0.916-0.916,1.526
		c-0.828,0.61-1.482,1.132-0.828,1.22c0.63,0.086,6.572,0.008,7.01,0c0.439,0.008,6.373,0.086,7,0
		C259.358,275.608,258.707,275.087,257.884,274.477z"/>
	<path d="M234.842,257.799c0-0.92-0.746-1.667-1.666-1.667h-7.906c-0.919,0-1.665,0.747-1.665,1.667v17.479
		c0,0.919,0.746,1.664,1.665,1.664h7.907c0.919,0,1.665-0.745,1.665-1.664L234.842,257.799L234.842,257.799z M228.397,258.007h1.665
		c0.115,0,0.208,0.093,0.208,0.208c0,0.114-0.093,0.208-0.208,0.208h-1.665c-0.115,0-0.208-0.094-0.208-0.208
		C228.189,258.099,228.282,258.007,228.397,258.007z M229.161,275.957c-0.46,0-0.833-0.372-0.833-0.832
		c0-0.461,0.373-0.833,0.833-0.833c0.459,0,0.832,0.372,0.832,0.833C229.993,275.585,229.621,275.957,229.161,275.957z
		 M233.801,273.613h-9.156v-13.942h9.156L233.801,273.613L233.801,273.613z"/>
	<path d="M286.868,246.54h-17.125c-1.289,0-2.334,1.044-2.334,2.334v24.528c0,1.29,1.045,2.336,2.334,2.336h17.125
		c1.29,0,2.335-1.046,2.335-2.336v-24.528C289.201,247.584,288.157,246.54,286.868,246.54z M274.953,274.439
		c-0.645,0-1.168-0.521-1.168-1.166c0-0.646,0.523-1.167,1.168-1.167c0.644,0,1.166,0.521,1.166,1.167
		C276.119,273.918,275.597,274.439,274.953,274.439z M278.305,274.439c-0.643,0-1.166-0.521-1.166-1.166
		c0-0.646,0.523-1.167,1.166-1.167c0.646,0,1.167,0.521,1.167,1.167C279.472,273.918,278.952,274.439,278.305,274.439z
		 M281.66,274.439c-0.646,0-1.167-0.521-1.167-1.166c0-0.646,0.521-1.167,1.167-1.167c0.645,0,1.166,0.521,1.166,1.167
		C282.826,273.918,282.305,274.439,281.66,274.439z M287.743,271.067h-18.875v-22.485h18.875V271.067L287.743,271.067z"/>
	<path d="M272.723,244.572h2.87v-5.198c0-1.058-0.857-1.914-1.914-1.914h-43.975c-1.057,0-1.914,0.856-1.914,1.914v14.781h2.871
		V240.33h42.062V244.572L272.723,244.572z"/>
	<path d="M236.811,263.31v5.74h28.63v-5.74H236.811z M251.708,267.491c-0.724,0-1.313-0.587-1.313-1.312
		c0-0.726,0.588-1.312,1.313-1.312c0.725,0,1.313,0.586,1.313,1.312C253.021,266.902,252.433,267.491,251.708,267.491z"/>
</g>
</svg>
