<?xml version="1.0" encoding="utf-8"?>
<!-- Generator: Adobe Illustrator 16.0.0, SVG Export Plug-In . SVG Version: 6.00 Build 0)  -->
<!DOCTYPE svg PUBLIC "-//W3C//DTD SVG 1.1//EN" "http://www.w3.org/Graphics/SVG/1.1/DTD/svg11.dtd">
<svg version="1.1" id="Layer_1" xmlns="http://www.w3.org/2000/svg" xmlns:xlink="http://www.w3.org/1999/xlink" x="0px" y="0px"
	 width="100px" height="100px" viewBox="0 0 100 100" enable-background="new 0 0 100 100" xml:space="preserve">
<g>
	<path fill-rule="evenodd" clip-rule="evenodd" fill="#FFFFFF" d="M92.982,92.982c-28.662,0-57.317,0-85.965,0
		c0-28.662,0-57.317,0-85.965c28.663,0,57.317,0,85.965,0C92.982,35.68,92.982,64.335,92.982,92.982z M41.773,83.747
		c0.08,0,0.286,0,0.492,0c7.414,0,14.828,0.011,22.241-0.011c1.178-0.003,2.366-0.069,3.53-0.24
		c15.402-2.256,22.761-20.32,13.34-32.752c-0.416-0.549-0.458-0.895-0.028-1.463c3.076-4.067,4.441-8.651,4.164-13.758
		c-0.566-10.444-9.388-19.063-19.894-19.215c-7.877-0.114-15.758-0.044-23.637-0.053c-0.122,0-0.245,0.026-0.458,0.052
		c0.154,0.176,0.207,0.271,0.287,0.322c5.475,3.563,9.802,8.198,13.052,13.862c0.176,0.306,0.717,0.561,1.093,0.566
		c3.008,0.047,6.018-0.025,9.024,0.04c4.281,0.093,6.98,4.28,5.237,8.107c-1.04,2.284-2.922,3.349-5.401,3.374
		c-1.813,0.02-3.627,0.004-5.548,0.004c0.903,5.007,0.877,9.871,0.013,14.833c0.631,0,1.129,0,1.625,0
		c1.396,0.001,2.795-0.036,4.19,0.01c3.224,0.106,5.63,2.563,5.644,5.713c0.013,3.12-2.412,5.67-5.611,5.753
		c-3.006,0.078-6.016,0.047-9.023,0.004c-0.713-0.011-1.034,0.269-1.429,0.825c-1.817,2.562-3.519,5.249-5.64,7.542
		C46.843,79.635,44.213,81.603,41.773,83.747z M14.476,83.531c3.167,0,6.227,0.237,9.239-0.046
		c7.993-0.752,14.859-4.104,20.462-9.832c6.742-6.894,10.004-15.256,9.665-24.895c-0.316-9.021-3.799-16.738-10.289-23.021
		c-5.969-5.78-13.175-8.879-21.455-9.394c-2.517-0.155-5.052-0.023-7.583-0.023c0,4.949,0,9.829,0,14.938
		c2.699,0,5.332-0.228,7.913,0.043c7.609,0.799,13.88,6.239,15.934,13.564c2.073,7.395-0.5,15.278-6.546,20.008
		c-3.512,2.746-7.524,4.039-11.967,4.042c-1.777,0.002-3.553,0.001-5.372,0.001C14.476,73.908,14.476,78.767,14.476,83.531z"/>
	<path fill-rule="evenodd" clip-rule="evenodd" d="M41.773,83.747c2.439-2.145,5.07-4.112,7.264-6.483
		c2.121-2.293,3.822-4.98,5.64-7.542c0.395-0.557,0.716-0.836,1.429-0.825c3.008,0.043,6.018,0.074,9.023-0.004
		c3.199-0.083,5.624-2.633,5.611-5.753c-0.014-3.15-2.42-5.606-5.644-5.713c-1.396-0.046-2.794-0.009-4.19-0.01
		c-0.496,0-0.994,0-1.625,0c0.864-4.962,0.891-9.826-0.013-14.833c1.921,0,3.734,0.016,5.548-0.004
		c2.479-0.025,4.361-1.09,5.401-3.374c1.743-3.827-0.956-8.015-5.237-8.107c-3.007-0.065-6.017,0.007-9.024-0.04
		c-0.376-0.006-0.917-0.261-1.093-0.566c-3.25-5.664-7.577-10.3-13.052-13.862c-0.08-0.052-0.133-0.146-0.287-0.322
		c0.213-0.025,0.336-0.052,0.458-0.052c7.879,0.009,15.76-0.062,23.637,0.053c10.506,0.151,19.327,8.771,19.894,19.215
		c0.277,5.106-1.088,9.69-4.164,13.758c-0.43,0.568-0.388,0.914,0.028,1.463c9.421,12.432,2.063,30.496-13.34,32.752
		c-1.164,0.171-2.353,0.237-3.53,0.24c-7.413,0.021-14.827,0.011-22.241,0.011C42.06,83.747,41.854,83.747,41.773,83.747z"/>
	<path fill-rule="evenodd" clip-rule="evenodd" d="M14.476,83.531c0-4.765,0-9.623,0-14.615c1.818,0,3.595,0.001,5.372-0.001
		c4.443-0.003,8.455-1.296,11.967-4.042c6.047-4.729,8.62-12.613,6.546-20.008C36.307,37.54,30.037,32.1,22.427,31.301
		c-2.581-0.271-5.214-0.043-7.913-0.043c0-5.108,0-9.988,0-14.938c2.531,0,5.066-0.132,7.583,0.023
		c8.279,0.515,15.485,3.613,21.455,9.394c6.49,6.283,9.973,14,10.289,23.021c0.34,9.639-2.923,18.001-9.665,24.895
		c-5.603,5.729-12.469,9.08-20.462,9.832C20.703,83.769,17.643,83.531,14.476,83.531z"/>
</g>
</svg>
