<?xml version="1.0" encoding="utf-8"?>
<!-- Generator: Adobe Illustrator 16.0.0, SVG Export Plug-In . SVG Version: 6.00 Build 0)  -->
<!DOCTYPE svg PUBLIC "-//W3C//DTD SVG 1.1//EN" "http://www.w3.org/Graphics/SVG/1.1/DTD/svg11.dtd">
<svg version="1.1" id="Layer_1" xmlns="http://www.w3.org/2000/svg" xmlns:xlink="http://www.w3.org/1999/xlink" x="0px" y="0px"
	 width="100px" height="100px" viewBox="0 0 100 100" enable-background="new 0 0 100 100" xml:space="preserve">
<g>
	<path fill-rule="evenodd" clip-rule="evenodd" d="M76.217,86.067c-17.266,0-34.532,0-51.798,0
		c-1.509-0.588-3.118-1.004-4.507-1.802c-3.078-1.766-4.576-4.691-5.344-8.049c0-17.372,0-34.744,0-52.116
		c0.851-1.765,1.513-3.657,2.597-5.264c1.694-2.512,4.414-3.558,7.254-4.27c17.266,0,34.532,0,51.798,0
		c2.757,0.691,5.444,1.672,7.079,4.105c1.174,1.747,1.865,3.819,2.771,5.746c0,17.266,0,34.532,0,51.798
		c-0.906,1.93-1.595,4.006-2.771,5.755C81.661,84.402,78.965,85.366,76.217,86.067z M58.398,19.562
		c-0.393-0.04-0.744-0.106-1.096-0.106c-10.325-0.005-20.649-0.03-30.974,0.01c-4.149,0.016-6.848,2.733-6.855,6.899
		c-0.028,15.937-0.017,31.874,0.003,47.811c0.001,0.918,0.206,1.836,0.319,2.785c12.564-12.583,24.968-25.005,37.438-37.494
		C53.135,29.579,53.165,28.988,58.398,19.562z M23.909,80.678c1.775,0.761,51.059,0.759,52.8,0.005
		c-8.835-8.827-17.719-17.703-26.383-26.359C41.594,63.035,32.729,71.879,23.909,80.678z M70.186,50.787
		c3.817-5.433,7.42-10.634,9.93-16.493c0.352-0.819,0.661-1.676,0.838-2.547c1.198-5.919-3.758-11.797-10.293-12.251
		C63.493,19,57.465,26.356,59.813,32.985C62.106,39.458,66.138,44.975,70.186,50.787z M54.229,50.16
		c8.853,8.857,17.696,17.707,26.481,26.497c0.513-1.237,0.809-30.374,0.225-33.075c-0.307,0.448-0.563,0.824-0.821,1.2
		c-2.414,3.534-4.777,7.105-7.26,10.592c-1.919,2.694-3.427,2.657-5.38-0.08c-2.575-3.608-5.072-7.272-7.53-10.809
		C58.001,46.414,56.024,48.377,54.229,50.16z"/>
	<path fill-rule="evenodd" clip-rule="evenodd" fill="#FFFFFF" d="M86.067,24.419c-0.906-1.927-1.598-3.999-2.771-5.746
		c-1.635-2.434-4.322-3.415-7.079-4.105c3.283,0,6.567,0,9.851,0C86.067,17.852,86.067,21.135,86.067,24.419z"/>
	<path fill-rule="evenodd" clip-rule="evenodd" fill="#FFFFFF" d="M76.217,86.067c2.748-0.701,5.444-1.665,7.079-4.096
		c1.177-1.749,1.865-3.825,2.771-5.755c0,3.283,0,6.567,0,9.851C82.784,86.067,79.5,86.067,76.217,86.067z"/>
	<path fill-rule="evenodd" clip-rule="evenodd" fill="#FFFFFF" d="M24.419,14.568c-2.84,0.711-5.56,1.758-7.254,4.27
		c-1.084,1.607-1.746,3.499-2.597,5.264c0-3.178,0-6.355,0-9.533C17.852,14.568,21.135,14.568,24.419,14.568z"/>
	<path fill-rule="evenodd" clip-rule="evenodd" fill="#FFFFFF" d="M14.568,76.217c0.768,3.357,2.266,6.283,5.344,8.049
		c1.389,0.798,2.998,1.214,4.507,1.802c-3.284,0-6.567,0-9.851,0C14.568,82.784,14.568,79.5,14.568,76.217z"/>
	<path fill-rule="evenodd" clip-rule="evenodd" fill="#FFFFFF" d="M58.398,19.562c-5.233,9.426-5.264,10.017-1.165,19.905
		C44.763,51.956,32.359,64.378,19.795,76.961c-0.113-0.949-0.317-1.867-0.319-2.785c-0.02-15.938-0.031-31.874-0.003-47.811
		c0.007-4.166,2.706-6.883,6.855-6.899c10.325-0.04,20.649-0.015,30.974-0.01C57.654,19.456,58.006,19.522,58.398,19.562z
		 M42.172,37.447c-1.546,3.516-4.828,5.182-8.265,4.386c-3.064-0.708-5.43-3.77-5.311-7.044c0.104-2.835,1.526-4.947,4.063-6.151
		c2.821-1.338,5.443-0.775,7.806,1.219c1.358,1.147,2.679,1.166,3.66,0.107c1.006-1.086,0.841-2.623-0.424-3.77
		c-2.852-2.584-6.248-3.562-9.985-2.982c-6.334,0.984-10.529,6.658-9.932,13.189c0.54,5.898,6.083,10.717,12.113,10.527
		c6.289-0.198,11.385-5.15,11.695-11.364c0.093-1.866-0.818-2.949-2.661-2.979c-3.015-0.049-6.032-0.044-9.047-0.005
		c-1.755,0.022-2.682,0.941-2.642,2.465c0.039,1.487,1.033,2.375,2.756,2.396C37.999,37.466,40,37.447,42.172,37.447z"/>
	<path fill-rule="evenodd" clip-rule="evenodd" fill="#FFFFFF" d="M23.909,80.678c8.82-8.799,17.685-17.643,26.417-26.354
		c8.664,8.656,17.548,17.532,26.383,26.359C74.968,81.437,25.684,81.438,23.909,80.678z"/>
	<path fill-rule="evenodd" clip-rule="evenodd" fill="#FFFFFF" d="M70.186,50.787c-4.048-5.813-8.079-11.33-10.372-17.802
		C57.465,26.356,63.493,19,70.66,19.496c6.535,0.454,11.491,6.332,10.293,12.251c-0.177,0.871-0.486,1.728-0.838,2.547
		C77.605,40.153,74.003,45.354,70.186,50.787z"/>
	<path fill-rule="evenodd" clip-rule="evenodd" fill="#FFFFFF" d="M54.229,50.16c1.796-1.783,3.772-3.746,5.715-5.675
		c2.458,3.536,4.955,7.2,7.53,10.809c1.953,2.737,3.461,2.774,5.38,0.08c2.482-3.486,4.846-7.058,7.26-10.592
		c0.258-0.376,0.515-0.752,0.821-1.2c0.584,2.701,0.288,31.838-0.225,33.075C71.925,67.867,63.081,59.018,54.229,50.16z"/>
	<path fill-rule="evenodd" clip-rule="evenodd" d="M42.172,37.447c-2.172,0-4.173,0.019-6.174-0.005
		c-1.723-0.021-2.717-0.909-2.756-2.396c-0.04-1.524,0.887-2.443,2.642-2.465c3.016-0.039,6.032-0.044,9.047,0.005
		c1.843,0.03,2.754,1.113,2.661,2.979c-0.31,6.214-5.406,11.167-11.695,11.364c-6.029,0.19-11.573-4.628-12.113-10.527
		c-0.597-6.532,3.598-12.206,9.932-13.189c3.737-0.58,7.134,0.397,9.985,2.982c1.265,1.147,1.43,2.684,0.424,3.77
		c-0.98,1.058-2.301,1.04-3.66-0.107c-2.363-1.995-4.985-2.558-7.806-1.219c-2.538,1.204-3.959,3.316-4.063,6.151
		c-0.12,3.275,2.246,6.336,5.311,7.044C37.344,42.629,40.625,40.963,42.172,37.447z"/>
</g>
</svg>
