<?xml version="1.0" encoding="utf-8"?>
<!-- Generator: Adobe Illustrator 16.0.0, SVG Export Plug-In . SVG Version: 6.00 Build 0)  -->
<!DOCTYPE svg PUBLIC "-//W3C//DTD SVG 1.1//EN" "http://www.w3.org/Graphics/SVG/1.1/DTD/svg11.dtd">
<svg version="1.1" id="Layer_1" xmlns="http://www.w3.org/2000/svg" xmlns:xlink="http://www.w3.org/1999/xlink" x="0px" y="0px"
	 width="75px" height="75px" viewBox="519.086 507.771 75 75" enable-background="new 519.086 507.771 75 75" xml:space="preserve">
<g>
	<g>
		<path d="M583.325,558.468c-0.758,1.259-1.443,2.569-2.289,3.769c-4.217,5.98-9.992,9.478-17.217,10.566
			c-3.635,0.549-7.277,0.432-10.881-0.251c-3.831-0.727-7.304-2.375-10.511-4.549c-6.565-4.453-11.095-10.42-13.104-18.153
			c-1.339-5.156-1.212-10.264,1.06-15.171c0.593-1.279,1.392-2.477,2.209-3.634c0.944-1.337,2.014-2.586,3.106-3.829
			c-0.186,0.434-0.381,0.863-0.554,1.301c-2.043,5.158-2.064,10.396-0.496,15.651c2.136,7.151,6.546,12.636,12.667,16.788
			c5.49,3.725,11.58,5.506,18.219,5.318c5.044-0.143,9.78-1.355,13.885-4.415c1.369-1.021,2.568-2.268,3.846-3.41
			C583.285,558.456,583.306,558.461,583.325,558.468z"/>
		<path d="M584.71,544.284c-0.413,0.814-0.771,1.642-1.229,2.408c-2.95,4.931-7.32,7.744-12.973,8.633
			c-2.903,0.456-5.809,0.371-8.67-0.188c-2.071-0.405-4.005-1.299-5.822-2.387c-5.263-3.15-9.012-7.524-10.576-13.53
			c-1.333-5.116-0.623-9.933,2.582-14.267c0.627-0.848,1.221-1.719,1.831-2.577c0.021-0.029,0.055-0.05,0.129-0.115
			c-0.022,0.112-0.023,0.185-0.052,0.244c-2.322,5.039-2.135,10.108,0.258,14.994c3.744,7.655,9.972,12.073,18.44,13.144
			c4.751,0.601,9.174-0.452,13.006-3.434C582.73,546.354,583.663,545.291,584.71,544.284z"/>
		<path d="M561.711,519.538c-0.235,0.956-0.555,1.886-0.681,2.841c-0.411,3.084,0.509,5.857,2.234,8.369
			c2.592,3.771,6.223,5.845,10.757,6.374c1.445,0.169,2.881,0.159,4.3-0.179c1.611-0.383,2.252-0.769,4.515-2.684
			c-0.138,0.267-0.209,0.427-0.299,0.575c-2.132,3.499-5.243,5.245-9.345,5.412c-7.021,0.284-12.816-5.021-14.115-10.485
			c-0.769-3.23-0.257-6.232,1.707-8.95C561.093,520.385,561.404,519.959,561.711,519.538z"/>
	</g>
</g>
</svg>
