<?xml version="1.0" encoding="utf-8"?>
<!-- Generator: Adobe Illustrator 16.0.0, SVG Export Plug-In . SVG Version: 6.00 Build 0)  -->
<!DOCTYPE svg PUBLIC "-//W3C//DTD SVG 1.1//EN" "http://www.w3.org/Graphics/SVG/1.1/DTD/svg11.dtd">
<svg version="1.1" id="Layer_1" xmlns="http://www.w3.org/2000/svg" xmlns:xlink="http://www.w3.org/1999/xlink" x="0px" y="0px"
	 width="75px" height="75px" viewBox="75.16 75.032 75 75" enable-background="new 75.16 75.032 75 75" xml:space="preserve">
<g transform="translate(0.000000,225.000000) scale(0.100000,-0.100000)">
	<path d="M1070.449,1329.336c-62.983-11.597-142.544-52.764-188.125-98.066c-25.972-25.415-36.465-44.751-36.465-66.304
		c0-32.871,20.444-56.021,83.701-95.093c38.403-23.486,37.573-21.27,10.776-34.531c-45.029-22.646-66.577-42.265-74.312-67.685
		c-6.631-22.373,6.079-46.133,26.797-49.99c26.519-4.98,64.644,7.998,85.64,29.004c17.954,18.223,24.307,33.428,24.307,59.668
		c0,12.148-1.104,25.967-2.207,30.381c-1.934,8.018-1.66,8.848,13.262,16.025c8.286,4.141,15.742,7.461,16.299,7.461
		c0.552,0-0.83-7.178-2.764-15.752c-4.976-20.713-4.697-32.598,0.273-49.443c5.249-17.676,14.365-26.523,27.627-26.523
		c12.71,0,17.954,4.697,30.391,28.457c5.522,10.498,10.22,19.062,10.493,19.062c0.278,0,0.83-6.904,0.83-15.195
		c0.552-16.572,6.074-26.25,15.469-26.25c8.013,0,28.945,21.279,40.781,41.172c6.074,9.941,16.016,30.654,22.373,45.859
		c12.988,31.68,15.186,34.697,17.676,25.918c0.83-3.574,4.971-14.326,8.848-23.994l7.168-17.402l-20.703-21.27
		c-23.486-24.033-27.91-32.597-19.902-38.672c12.432-9.121,57.471,5.791,67.686,22.646c3.867,6.357,5.244,13.818,5.244,30.664
		c0,24.307,4.424,36.738,19.619,57.92c9.395,12.92,13.535,15.381,13.535,7.969c0-2.48,3.32-11.816,7.461-20.898l7.188-16.25
		l-13.818-14.375c-7.734-8.008-15.469-17.129-17.129-20.439c-4.141-8.008-3.867-23.76,0.283-27.9
		c9.111-9.111,41.436,2.48,57.188,20.166c8.828,10.225,9.102,11.602,7.725,26.797c-0.83,8.838-0.557,16.572,0.83,17.402
		c1.104,0.83,11.055,2.49,22.1,4.141c49.717,7.168,93.936-14.082,93.936-45.02c0-7.744-2.217-12.158-10.225-19.893
		c-11.055-10.781-7.471-12.705,6.904-4.15c11.328,6.904,18.223,22.1,15.469,34.258c-4.424,21.27-18.516,36.465-43.926,47.744
		c-14.639,6.318-60.215,6.318-80.117-0.283c-13.262-4.121-14.092-4.121-18.506,1.113c-8.564,10.439-11.611,32.437-7.178,50.386
		c3.857,14.922,3.857,16.025-0.83,18.516c-6.084,3.311-16.865,3.594-25.42,0.273c-4.697-1.934-8.018-7.178-12.422-19.609
		c-5.527-16.294-32.881-63.335-36.748-63.335c-6.904,0-10.498,37.129-5.254,55.049c3.32,12.153,0.273,14.36-17.676,12.974
		c-16.299-1.377-20.166-5.791-30.947-33.647c-16.289-42.109-34.463-82.715-41.602-91.836c-6.904-9.111-7.456-9.395-9.39-3.857
		c-2.48,6.631-0.552,14.355,9.663,38.389c10.996,26.25,8.242,42.471-6.621,38.623c-4.692-1.104-5.522,0-5.522,8.789
		c0,31.665-32.051,30.005-68.237-3.574c-12.71-11.543-23.481-18.418-41.992-26.426c-13.809-5.801-25.688-9.668-26.519-8.291
		c-0.552,1.104-12.71,9.941-26.797,19.6c-31.494,21.172-53.594,41.523-60.771,55.874c-4.424,8.574-5.254,14.648-4.424,28.467
		c0.83,14.912,2.764,19.609,12.432,33.145c14.087,20.166,40.332,40.337,77.9,59.673c75.142,38.95,134.536,52.217,178.345,39.229
		c22.656-6.357,34.541-18.511,34.541-35.088c0-48.062-75.859-99.722-147.686-100.005c-22.656-0.273-26.797,0.557-42.822,8.574
		c-9.941,4.688-18.232,8.281-18.784,7.725c-1.66-1.65,7.183-16.572,13.813-22.656c25.688-24.023,86.47-20.439,147.158,8.574
		c13.779,6.631,30.078,15.742,36.436,20.439c24.863,18.516,45.029,55.801,45.029,83.706c0,12.979-7.461,28.73-18.516,38.672
		C1184.15,1329.892,1126.26,1339.287,1070.449,1329.336z M1100.835,1092.451c0-9.072-9.941-43.301-17.397-60.42
		c-6.631-14.922-19.893-32.597-24.312-32.597c-4.146,0-8.564,22.646-6.909,34.521c3.594,22.656,10.503,37.852,23.481,51.348
		C1090.063,1100.146,1100.835,1103.164,1100.835,1092.451z M977.632,1028.154c2.485-6.631,1.934-23.477-1.104-34.804
		c-6.079-21.826-39.502-49.17-59.951-49.17c-26.792,0-20.713,36.191,9.946,60.771c11.05,8.564,43.374,27.354,47.515,27.627
		C975.146,1032.578,976.802,1030.644,977.632,1028.154z"/>
</g>
</svg>
