<?xml version="1.0" encoding="utf-8"?>
<!-- Generator: Adobe Illustrator 16.0.0, SVG Export Plug-In . SVG Version: 6.00 Build 0)  -->
<!DOCTYPE svg PUBLIC "-//W3C//DTD SVG 1.1//EN" "http://www.w3.org/Graphics/SVG/1.1/DTD/svg11.dtd">
<svg version="1.1" id="Layer_1" xmlns="http://www.w3.org/2000/svg" xmlns:xlink="http://www.w3.org/1999/xlink" x="0px" y="0px"
	 width="75px" height="75px" viewBox="12.8 19.025 75 75" enable-background="new 12.8 19.025 75 75" xml:space="preserve">
<path d="M25.756,57.535c0,9.675,5.621,18.039,13.762,22.001L27.872,47.585C26.515,50.626,25.756,53.99,25.756,57.535z
	 M66.691,56.302c0-3.024-1.085-5.114-2.014-6.742c-1.244-2.015-2.402-3.718-2.402-5.734c0-2.245,1.703-4.338,4.106-4.338
	c0.104,0,0.205,0.015,0.315,0.019c-4.351-3.984-10.144-6.416-16.512-6.416c-8.541,0-16.044,4.38-20.412,11.018
	c0.575,0.019,1.115,0.03,1.577,0.03c2.548,0,6.497-0.313,6.497-0.313c1.317-0.076,1.475,1.859,0.157,2.018
	c0,0-1.325,0.153-2.797,0.232l8.901,26.481l5.351-16.047l-3.808-10.437c-1.316-0.079-2.563-0.231-2.563-0.231
	c-1.319-0.08-1.166-2.096,0.154-2.02c0,0,4.037,0.314,6.438,0.314c2.559,0,6.515-0.314,6.515-0.314
	c1.318-0.076,1.476,1.861,0.157,2.02c0,0-1.325,0.152-2.798,0.231l8.835,26.281l2.44-8.146
	C66.069,61.026,66.691,58.396,66.691,56.302z M50.616,59.671L43.28,80.989c2.191,0.646,4.509,0.994,6.905,0.994
	c2.848,0,5.579-0.492,8.12-1.384c-0.066-0.104-0.125-0.215-0.174-0.34L50.616,59.671z M71.641,45.806
	c0.104,0.779,0.166,1.614,0.166,2.513c0,2.482-0.463,5.271-1.86,8.757l-7.468,21.591c7.27-4.238,12.157-12.113,12.157-21.133
	C74.636,53.284,73.549,49.29,71.641,45.806z M21.703,57.535c0,15.716,12.776,28.5,28.482,28.5c15.715,0,28.502-12.784,28.502-28.5
	S65.9,29.022,50.186,29.022C34.479,29.022,21.703,41.82,21.703,57.535z M23.011,57.535c0-14.993,12.186-27.201,27.175-27.201
	c14.996,0,27.195,12.208,27.195,27.201S65.182,84.729,50.186,84.729C35.196,84.729,23.011,72.528,23.011,57.535z"/>
</svg>
